# xmcd CD database file
#
# Track frame offsets:
#	150
#	13422
#	23381
#	37456
#	50150
#	60584
#	71785
#	82432
#	92583
#	103195
#	114227
#	125837
#	135032
#	144410
#	154544
#	164010
#	174457
#	185590
#	197305
#	210312
#	223285
#	234888
#	247092
#	258322
#	270905
#
# Disc length: 3795 seconds
#
# Revision: 0
# Processed by: cddbd v1.5.2PL0 Copyright (c) Steve Scherf et al.
# Submitted via: CDex 1.70beta2
#
DISCID=6b0ed119
DTITLE=Terry Fell and The Fellers - Get Aboard My Wagon
DYEAR=2007
DGENRE=Country
TTITLE0=Rainbow At Midnight
TTITLE1=Don't Drop It
TTITLE2=Hillbilly Impersonations
TTITLE3=Smokin' Cornsilk
TTITLE4=Truck Drivin' Man
TTITLE5=Over And Over
TTITLE6=You Don't Give A Hang About Me
TTITLE7=Get Aboard My Wagon
TTITLE8=If I Didn't Have You
TTITLE9=That's What I Like
TTITLE10=Don't Do It Joe
TTITLE11=Fa So La
TTITLE12=I'm Hot To Trot
TTITLE13=Consolation Prize
TTITLE14=Mississippi River Shuffle
TTITLE15=He's In Love With You
TTITLE16=I Can Hear You Cluckin'
TTITLE17=Paper Heart
TTITLE18=Yesterday
TTITLE19=Iv'e Done All I Know To Do
TTITLE20=There's A Gold Moon Shining
TTITLE21=You Don't Want Me Anymore
TTITLE22=You're Not Wanted Here
TTITLE23=You Ran Around
TTITLE24=Dreamer's Paradise
EXTD=YEAR: 2007
EXTT0=
EXTT1=
EXTT2=
EXTT3=
EXTT4=
EXTT5=
EXTT6=
EXTT7=
EXTT8=
EXTT9=
EXTT10=
EXTT11=
EXTT12=
EXTT13=
EXTT14=
EXTT15=
EXTT16=
EXTT17=
EXTT18=
EXTT19=
EXTT20=
EXTT21=
EXTT22=
EXTT23=
EXTT24=
PLAYORDER=
